#!OML:ASF E:\emotionWalksFemale\Project 1\Capture day 1\Session 1\Female1.ASF
:FULLY-SPECIFIED
:DEGREES
834
root 9.01057 15.0599 -8.24343 -178.305 -2.70691 -173.657
lowerback 2.14538 3.32221 3.40593
upperback -0.0913112 4.50729 0.0300948
thorax -1.03401 2.23006 -1.99576
lowerneck 5.53779 -5.23642 -10.5466
upperneck -0.871953 -7.5917 11.3469
head -0.315538 -3.98084 5.21573
rclavicle 5.71506e-015 0
rhumerus -21.3601 7.2662 -94.4332
rradius 38.9132
rwrist 21.7399
rhand 1.38387 -46.2391
rfingers 7.12502
rthumb 26.9152 -74.3426
lclavicle 5.71506e-015 0
lhumerus -37.9795 11.3818 80.9541
lradius 33.7047
lwrist -15.5672
lhand -1.00719 -35.3775
lfingers 7.12502
lthumb 24.6253 -6.9417
rfemur 20.7429 8.06124 39.7968
rtibia 2.22639e-014
rfoot -11.7899 -24.6761
rtoes 5.72811
lfemur -41.1018 -33.4317 -0.264089
ltibia 24.2572
lfoot -22.845 26.4543
ltoes -6.43079
835
root 8.99145 15.0386 -8.37521 -178.107 -2.45053 -173.679
lowerback 2.0541 3.34139 3.48322
upperback -0.174609 4.53342 0.0155534
thorax -1.05987 2.24143 -2.05112
lowerneck 5.62101 -5.13664 -10.7052
upperneck -0.937199 -7.4609 11.0925
head -0.36614 -3.90838 5.16861
rclavicle 9.07949e-014 -7.95139e-016
rhumerus -21.7146 6.46712 -94.4484
rradius 38.655
rwrist 21.6563
rhand 2.69099 -45.8625
rfingers 7.12502
rthumb 28.1652 -73.7668
lclavicle 9.07949e-014 -7.95139e-016
lhumerus -38.286 11.3921 81.0124
lradius 33.5137
lwrist -16.2143
lhand 0.65792 -35.0977
lfingers 7.12502
lthumb 26.2204 -6.88899
rfemur 21.1824 7.85133 39.5868
rtibia -4.45278e-014
rfoot -11.8435 -24.1929
rtoes 4.42145
lfemur -40.5177 -31.9745 -1.25947
ltibia 24.4113
lfoot -21.9253 25.3718
ltoes -6.42584
836
root 8.97308 15.0153 -8.50938 -177.963 -2.16473 -173.723
lowerback 1.97508 3.39696 3.60661
upperback -0.145928 4.60614 -0.022921
thorax -0.969019 2.27915 -2.15333
lowerneck 5.61329 -5.09812 -10.835
upperneck -1.09817 -7.39351 10.7462
head -0.427128 -3.86175 5.08668
rclavicle -5.04416e-014 -1.59028e-015
rhumerus -21.8119 5.72215 -94.3572
rradius 38.1722
rwrist 21.4407
rhand 2.4365 -45.9748
rfingers 7.12502
rthumb 27.922 -73.9189
lclavicle -5.04416e-014 -1.59028e-015
lhumerus -38.4489 10.9885 81.2895
lradius 33.6675
lwrist -16.4263
lhand 2.29956 -34.921
lfingers 7.12502
lthumb 27.791 -6.95569
rfemur 21.6193 7.65121 39.3622
rtibia 6.36111e-015
rfoot -11.6863 -23.911
rtoes 3.28906
lfemur -39.8561 -30.7932 -2.16499
ltibia 24.4856
lfoot -21.4456 24.4804
ltoes -5.32413
837
root 8.95669 14.9967 -8.64924 -177.989 -1.78099 -173.709
lowerback 2.01401 3.43546 3.69079
upperback -0.0988922 4.65928 -0.0237566
thorax -0.932384 2.30629 -2.20224
lowerneck 5.16404 -5.05258 -10.7055
upperneck -0.717938 -7.29759 10.1439
head -0.279968 -3.78987 4.85986
rclavicle -1.799e-014 3.97569e-015
rhumerus -21.8871 5.21152 -94.2977
rradius 37.5853
rwrist 20.8558
rhand 2.51888 -45.7519
rfingers 7.12502
rthumb 28.0007 -73.6831
lclavicle -1.799e-014 3.97569e-015
lhumerus -38.4027 11.0376 81.3699
lradius 33.443
lwrist -16.8404
lhand 3.55346 -35.4001
lfingers 7.12502
lthumb 28.9893 -7.63452
rfemur 22.2076 7.48672 39.235
rtibia -9.54166e-015
rfoot -11.5795 -23.6467
rtoes 2.86019
lfemur -38.8354 -29.7179 -3.09616
ltibia 24.4938
lfoot -20.6274 23.9907
ltoes -6.32401
838
root 8.93819 14.9869 -8.79161 -178.048 -1.43785 -173.81
lowerback 2.07044 3.45591 3.68289
upperback -0.0927278 4.68867 -0.0794036
thorax -0.951708 2.32097 -2.25881
lowerneck 5.69414 -4.73834 -10.8663
upperneck -1.14969 -6.90823 10.183
head -0.52719 -3.60556 4.92583
rclavicle 2.52953e-014 -1.03368e-014
rhumerus -22.2591 4.64941 -94.2587
rradius 37.1388
rwrist 20.4747
rhand 2.73051 -45.8322
rfingers 7.12502
rthumb 28.203 -73.7303
lclavicle 2.52953e-014 -1.03368e-014
lhumerus -38.6594 11.2211 81.216
lradius 33.363
lwrist -17.5529
lhand 4.37848 -36.1074
lfingers 7.12502
lthumb 29.777 -8.47998
rfemur 22.8348 7.27831 38.9609
rtibia -2.22639e-014
rfoot -11.5008 -23.2125
rtoes 2.80023
lfemur -37.7623 -28.7149 -4.15725
ltibia 24.5258
lfoot -19.3098 23.6252
ltoes -9.70158
839
root 8.91817 14.9831 -8.93525 -178.06 -1.08587 -174.026
lowerback 2.04193 3.46586 3.51844
upperback -0.070605 4.69685 -0.12702
thorax -0.921631 2.3272 -2.21384
lowerneck 5.6934 -4.62292 -10.7517
upperneck -1.08547 -6.7474 9.70589
head -0.545451 -3.51451 4.76086
rclavicle 4.21423e-014 -7.95139e-016
rhumerus -22.5887 4.13424 -94.1084
rradius 36.4647
rwrist 20.592
rhand 2.89859 -45.7974
rfingers 7.12502
rthumb 28.3636 -73.6688
lclavicle 4.21423e-014 -7.95139e-016
lhumerus -38.9904 11.4375 81.0491
lradius 33.4605
lwrist -18.0546
lhand 5.56055 -36.4047
lfingers 7.12502
lthumb 30.9045 -8.98506
rfemur 23.426 7.09959 38.5357
rtibia 6.36111e-014
rfoot -11.2166 -22.7255
rtoes 2.72752
lfemur -36.9698 -28.3416 -4.91068
ltibia 24.5857
lfoot -18.1755 23.8098
ltoes -13.4521
840
root 8.90151 14.9849 -9.08223 -178.192 -0.595005 -174.141
lowerback 2.03738 3.50129 3.28336
upperback 0.0424346 4.7356 -0.0792074
thorax -0.823472 2.35046 -2.0308
lowerneck 4.53441 -4.90169 -10.3255
upperneck -0.00965315 -7.03763 8.57704
head -0.0658527 -3.62208 4.29173
rclavicle 6.55989e-015 2.38542e-015
rhumerus -22.6001 3.86649 -93.8521
rradius 35.4455
rwrist 20.7285
rhand 3.07013 -45.5627
rfingers 7.12502
rthumb 28.5276 -73.4067
lclavicle 6.55989e-015 2.38542e-015
lhumerus -38.9635 11.6896 80.9435
lradius 33.2352
lwrist -18.0939
lhand 6.9457 -37.2302
lfingers 7.12502
lthumb 32.224 -10.0694
rfemur 24.1741 7.02012 38.2303
rtibia -9.54166e-015
rfoot -10.6644 -22.2232
rtoes 2.68494
lfemur -36.2407 -28.63 -5.18978
ltibia 24.6476
lfoot -18.4771 23.9564
ltoes -6.61995
841
root 8.8811 14.9936 -9.22814 -178.364 -0.101481 -174.294
lowerback 2.19137 3.58513 3.20074
upperback 0.114555 4.84873 -0.140718
thorax -0.830376 2.4079 -2.05765
lowerneck 5.17956 -4.69248 -10.2938
upperneck -0.597784 -6.78572 8.37814
head -0.375297 -3.50018 4.2586
rclavicle -4.42793e-014 -1.35174e-014
rhumerus -22.6397 3.2413 -93.5394
rradius 34.514
rwrist 20.8193
rhand 3.08213 -45.613
rfingers 7.12502
rthumb 28.539 -73.4551
lclavicle -4.42793e-014 -1.35174e-014
lhumerus -39.0904 11.7862 80.7439
lradius 33.2685
lwrist -17.9603
lhand 8.57923 -38.135
lfingers 7.12502
lthumb 33.7776 -11.3021
rfemur 24.9435 6.94226 37.8615
rtibia 2.54444e-014
rfoot -9.7187 -21.7149
rtoes 2.06115
lfemur -35.6027 -29.1841 -5.4119
ltibia 24.7595
lfoot -17.6958 25.2924
ltoes -7.56075
842
root 8.85395 15.0125 -9.37791 -178.445 0.494949 -174.529
lowerback 2.35719 3.689 3.2232
upperback 0.143727 5.00814 -0.302234
thorax -0.867812 2.49412 -2.24863
lowerneck 5.26343 -4.57828 -10.224
upperneck -0.662028 -6.63488 7.76914
head -0.496932 -3.41213 4.5211
rclavicle -4.67144e-014 -1.35174e-014
rhumerus -22.8775 2.18803 -93.1597
rradius 33.7838
rwrist 21.2665
rhand 3.09646 -45.5319
rfingers 7.12502
rthumb 28.5527 -73.3717
lclavicle -4.67144e-014 -1.35174e-014
lhumerus -39.344 12.1148 80.3661
lradius 33.6396
lwrist -17.8323
lhand 10.1268 -38.1067
lfingers 7.12502
lthumb 35.2466 -11.6086
rfemur 25.5806 7.00696 37.3538
rtibia -9.54166e-015
rfoot -8.6197 -21.1847
rtoes 0.0410236
lfemur -34.923 -29.4531 -5.86849
ltibia 24.8939
lfoot -17.451 26.1398
ltoes -4.92454
843
root 8.82973 15.0411 -9.53085 -178.486 1.24865 -174.848
lowerback 2.50859 3.8104 3.01319
upperback 0.157914 5.16735 -0.439241
thorax -0.933815 2.57327 -2.28653
lowerneck 5.09893 -4.42135 -10.2604
upperneck -0.637692 -6.41096 7.65257
head -0.484758 -3.2949 4.48011
rclavicle -3.33958e-014 1.74931e-014
rhumerus -23.1067 1.30691 -92.7606
rradius 32.8597
rwrist 21.8977
rhand 3.06332 -45.3677
rfingers 7.12502
rthumb 28.5211 -73.2128
lclavicle -3.33958e-014 1.74931e-014
lhumerus -39.2443 12.7314 79.8898
lradius 33.4074
lwrist -17.4799
lhand 11.1044 -37.5354
lfingers 7.12502
lthumb 36.1731 -11.2616
rfemur 26.1658 7.24419 36.7373
rtibia -6.36111e-015
rfoot -7.65872 -20.5177
rtoes -1.72009
lfemur -33.9539 -29.0946 -6.70942
ltibia 24.9089
lfoot -16.6578 26.4064
ltoes -2.87391
844
root 8.81096 15.0727 -9.67582 -178.633 2.037 -175.372
lowerback 2.83842 3.96079 2.51441
upperback 0.164056 5.36117 -0.615645
thorax -1.1286 2.66928 -2.22186
lowerneck 5.04787 -4.31246 -10.2606
upperneck -0.621877 -6.26101 7.45243
head -0.49215 -3.21552 4.40636
rclavicle 2.88238e-015 3.4191e-014
rhumerus -23.1791 0.390393 -92.2865
rradius 31.6821
rwrist 22.7532
rhand 2.64066 -45.5502
rfingers 7.12502
rthumb 28.1171 -73.4623
lclavicle 2.88238e-015 3.4191e-014
lhumerus -39.078 13.4309 79.2821
lradius 32.92
lwrist -17.028
lhand 11.9325 -37.096
lfingers 7.12502
lthumb 36.9568 -11.0204
rfemur 26.8529 7.4849 35.9408
rtibia -2.54444e-014
rfoot -6.51417 -19.8735
rtoes -2.07385
lfemur -32.7633 -28.6549 -7.85313
ltibia 24.7637
lfoot -15.4164 26.5837
ltoes -2.46834
845
root 8.78708 15.1015 -9.82187 -178.852 2.56592 -176.052
lowerback 3.06787 4.05181 2.01777
upperback 0.227058 5.47139 -0.870985
thorax -1.20724 2.72762 -2.22741
lowerneck 5.30045 -4.22762 -10.3458
upperneck -0.791551 -6.17134 7.3287
head -0.603652 -3.16944 4.39228
rclavicle -4.42296e-015 -3.97569e-015
rhumerus -23.2458 -0.687945 -91.7019
rradius 30.5016
rwrist 23.9112
rhand 2.00652 -45.6952
rfingers 7.12502
rthumb 27.5108 -73.7053
lclavicle -4.42296e-015 -3.97569e-015
lhumerus -39.2593 13.795 78.7007
lradius 33.1967
lwrist -16.1899
lhand 12.7861 -36.5004
lfingers 7.12502
lthumb 37.7638 -10.6373
rfemur 27.562 7.46712 34.9923
rtibia 5.08889e-014
rfoot -4.70466 -19.3781
rtoes -3.66938
lfemur -31.5611 -28.3967 -9.18707
ltibia 24.4902
lfoot -14.8101 26.4178
ltoes -0.0351869
846
root 8.75319 15.1258 -9.96923 -178.931 2.59231 -176.694
lowerback 3.18521 3.96095 1.74228
upperback 0.182799 5.34254 -1.17004
thorax -1.32148 2.66399 -2.38822
lowerneck 5.73866 -4.08209 -10.4341
upperneck -1.00939 -6.0192 7.31441
head -0.767577 -3.09639 4.42615
rclavicle -9.74045e-015 6.36111e-015
rhumerus -23.4688 -1.851 -91.086
rradius 29.2871
rwrist 25.3667
rhand 2.03003 -45.9048
rfingers 7.12502
rthumb 27.5333 -73.9114
lclavicle -9.74045e-015 6.36111e-015
lhumerus -39.677 14.1762 77.9393
lradius 33.7332
lwrist -15.4902
lhand 13.3951 -36.1753
lfingers 7.12502
lthumb 38.3389 -10.4691
rfemur 25.7888 6.99957 34.0082
rtibia 4.50454
rfoot -4.88874 -19.1691
rtoes -6.36752
lfemur -30.6099 -28.0326 -10.5223
ltibia 24.0669
lfoot -14.2276 25.5647
ltoes 4.56642
847
root 8.71981 15.1558 -10.0641 -178.713 2.6164 -176.59
lowerback 4.10339 3.87191 2.23976
upperback -0.170409 5.25523 -1.30084
thorax -2.14586 2.59746 -2.88367
lowerneck 5.30654 -4.16391 -10.2791
upperneck -0.544794 -6.09713 6.95451
head -0.54542 -3.13128 4.2399
rclavicle -8.12035e-014 2.14687e-014
rhumerus -23.8032 -3.24684 -90.3357
rradius 28.3376
rwrist 26.9299
rhand 2.2514 -46.779
rfingers 7.12502
rthumb 27.745 -74.7517
lclavicle -8.12035e-014 2.14687e-014
lhumerus -39.5842 15.0901 76.9943
lradius 33.3491
lwrist -15.6968
lhand 13.1386 -36.4355
lfingers 7.12502
lthumb 38.0968 -10.6627
rfemur 22.3528 6.5824 33.7275
rtibia 11.0447
rfoot -5.75464 -18.9063
rtoes -7.39594
lfemur -30.2319 -27.085 -10.8011
ltibia 23.5457
lfoot -13.0396 24.4589
ltoes 7.73118
